<?xml version="1.0" standalone="no"?>
<!DOCTYPE svg PUBLIC "-//W3C//DTD SVG 20010904//EN"
 "http://www.w3.org/TR/2001/REC-SVG-20010904/DTD/svg10.dtd">
<svg version="1.0" xmlns="http://www.w3.org/2000/svg"
 width="512.000000pt" height="512.000000pt" viewBox="0 0 512.000000 512.000000"
 preserveAspectRatio="xMidYMid meet">
<metadata>
Created by potrace 1.11, written by Peter Selinger 2001-2013
</metadata>
<g transform="translate(0.000000,512.000000) scale(0.100000,-0.100000)"
fill="#000000" stroke="none">
<path d="M0 5015 l0 -104 378 2 c338 2 380 0 408 -15 44 -24 62 -56 69 -124 7
-58 6 -61 -25 -91 -30 -30 -31 -31 -11 -38 42 -13 61 -52 61 -127 0 -86 -10
-104 -68 -131 -43 -19 -75 -21 -377 -29 -181 -5 -354 -8 -383 -6 l-52 3 0 -44
0 -43 158 6 c271 11 893 26 1542 36 1400 21 1450 22 2265 50 382 13 1016 40
1093 46 l62 6 0 33 c0 30 -4 34 -32 40 -55 12 -108 44 -128 78 -29 47 -100
297 -100 351 0 33 35 81 72 99 18 9 68 19 111 23 l77 7 0 38 0 39 -2560 0
-2560 0 0 -105z m4473 -23 c9 -10 19 -35 22 -57 11 -69 3 -71 -249 -79 -120
-4 -224 -10 -232 -13 -16 -6 -18 -37 -5 -79 5 -16 14 -54 21 -84 6 -30 14 -63
17 -72 4 -16 18 -18 108 -18 120 0 135 4 135 35 0 34 -22 47 -69 39 -56 -9
-87 12 -96 66 -4 25 -3 46 4 54 8 10 61 15 192 20 210 9 210 9 228 -82 35
-177 33 -217 -11 -245 -35 -22 -60 -25 -355 -38 -433 -19 -440 -14 -504 329
-21 118 -15 152 38 190 40 28 77 34 296 42 368 13 442 12 460 -8z m-1200 -24
c12 -9 27 -67 52 -198 65 -348 64 -335 38 -348 -10 -5 -97 -12 -194 -15 -165
-4 -203 -1 -219 24 -19 27 -212 219 -221 219 -7 0 -9 -9 -6 -22 15 -57 30
-209 21 -218 -16 -16 -223 -15 -239 1 -11 12 -81 401 -87 486 -4 61 4 63 217
63 l192 0 114 -122 c129 -137 131 -137 105 6 -23 119 -20 122 94 129 30 2 69
4 86 5 16 1 38 -4 47 -10z m-1474 -37 c8 -5 17 -33 22 -63 4 -29 14 -100 22
-158 31 -216 40 -301 31 -310 -5 -5 -81 -12 -169 -16 -127 -5 -163 -3 -176 8
-12 9 -22 56 -38 168 -37 277 -44 350 -30 366 9 11 44 14 168 14 86 0 162 -4
170 -9z"/>
<path d="M373 4803 l-63 -4 0 -37 c0 -60 8 -66 86 -59 38 4 81 7 97 7 25 0 27
3 27 44 0 41 -2 44 -31 50 -17 3 -37 5 -43 4 -6 -1 -39 -3 -73 -5z"/>
<path d="M327 4583 c-2 -5 -1 -30 2 -58 l6 -50 85 -3 c134 -5 141 1 124 87
l-6 31 -104 0 c-56 0 -105 -3 -107 -7z"/>
<path d="M4910 4279 c0 -20 20 -106 125 -539 13 -52 20 -99 15 -104 -9 -9
-120 -16 -790 -46 -338 -15 -437 -16 -446 -7 -6 7 -39 156 -74 332 -34 176
-66 324 -71 329 -21 23 -28 -11 -14 -74 44 -199 114 -585 107 -592 -4 -4 -250
-14 -547 -23 -666 -19 -705 -19 -709 -2 -4 13 -30 179 -71 457 -28 185 -39
230 -56 213 -6 -6 -4 -47 7 -119 60 -400 80 -556 71 -561 -13 -8 -1261 -23
-1268 -15 -3 4 -20 144 -38 312 -39 372 -38 370 -56 370 -21 0 -20 -21 15
-345 17 -153 30 -294 30 -312 l0 -33 -212 -2 c-117 -2 -257 -3 -311 -2 -87 0
-96 -1 -82 -15 13 -13 57 -15 315 -12 246 2 300 0 300 -11 0 -7 9 -96 20 -198
11 -102 25 -252 32 -333 11 -137 14 -150 39 -180 32 -38 42 -34 30 14 -5 19
-14 81 -20 139 -6 58 -23 208 -36 334 -14 126 -23 231 -21 233 6 6 214 11 803
18 l473 5 5 -22 c5 -22 68 -456 85 -588 5 -36 16 -105 24 -155 8 -49 13 -91
11 -93 -6 -7 -1186 -31 -1202 -25 -13 5 -14 3 -4 -15 7 -12 19 -22 29 -23 30
-1 143 2 667 16 335 8 512 10 516 3 3 -5 14 -64 23 -131 9 -67 23 -162 31
-212 17 -102 37 -231 59 -385 9 -58 19 -121 22 -141 6 -34 4 -36 -25 -42 -17
-4 -117 -10 -222 -13 -186 -7 -190 -8 -172 -26 18 -17 28 -18 133 -9 63 5 156
11 205 13 l90 3 32 -190 c17 -104 34 -223 38 -264 6 -62 12 -78 37 -105 l30
-31 -7 35 c-3 19 -22 141 -41 270 -18 129 -37 247 -40 262 -5 27 -5 28 43 28
26 0 122 5 213 10 91 5 266 14 390 20 124 6 327 17 452 26 126 8 232 13 237
10 4 -3 11 -22 14 -43 3 -21 26 -137 52 -258 111 -530 129 -627 116 -635 -7
-4 -65 -10 -129 -14 -65 -4 -166 -11 -227 -16 -183 -16 -582 -40 -656 -40 -67
0 -69 -1 -59 -21 9 -15 18 -19 38 -15 15 3 137 12 272 21 135 8 342 22 460 31
118 8 239 16 269 17 l55 2 28 -130 c42 -200 120 -577 126 -608 2 -15 11 -27
19 -27 11 0 13 8 9 27 -3 16 -22 114 -41 218 -20 105 -49 256 -66 337 -16 81
-29 156 -29 167 0 26 13 28 160 35 221 9 515 27 548 32 19 3 32 11 32 19 0 11
-10 14 -42 10 -24 -3 -167 -12 -318 -20 -151 -8 -297 -17 -325 -20 -27 -2 -55
-1 -61 3 -10 7 -42 158 -139 657 -24 121 -46 232 -50 246 -6 26 -5 27 42 33
26 3 147 10 268 16 248 11 519 28 583 36 27 3 42 10 42 20 0 17 -23 17 -175 4
-60 -5 -162 -12 -225 -15 -63 -3 -180 -10 -260 -15 -80 -6 -177 -10 -216 -10
l-72 0 -16 78 c-90 434 -164 807 -160 811 2 3 84 8 182 12 158 7 555 29 840
45 82 5 102 9 102 21 0 17 24 18 -699 -22 -234 -13 -428 -22 -432 -20 -4 3 -9
17 -11 32 -3 16 -40 198 -82 406 -43 209 -75 384 -73 391 3 8 88 15 293 24
442 19 697 31 830 38 l122 7 22 -97 c12 -53 24 -96 27 -96 10 0 -1 216 -13
230 -6 8 -38 121 -69 250 -94 382 -99 403 -112 408 -8 2 -13 -5 -13 -19z
m-1128 -769 c4 -19 40 -199 78 -400 39 -201 74 -375 77 -387 4 -20 0 -21 -79
-27 -185 -13 -1208 -50 -1214 -43 -2 2 -10 48 -18 103 -8 54 -26 173 -40 264
-59 373 -73 475 -65 484 4 4 184 12 401 17 216 6 490 13 608 18 118 4 222 8
230 7 8 -1 18 -17 22 -36z m162 -848 c8 -13 180 -881 175 -886 -8 -8 -989 -64
-1203 -68 l-130 -3 -18 120 c-10 66 -32 206 -48 310 -16 105 -39 254 -51 333
-12 78 -20 144 -18 146 2 2 276 13 609 26 333 12 607 24 609 26 8 7 70 4 75
-4z"/>
<path d="M3305 3276 c-58 -22 -85 -57 -85 -111 0 -54 41 -107 97 -126 35 -11
111 -8 146 6 30 13 19 -22 -15 -46 -24 -17 -49 -24 -98 -27 -87 -4 -101 -9
-77 -27 29 -21 112 -28 181 -15 124 23 186 82 186 175 0 66 -40 133 -96 160
-52 25 -184 31 -239 11z m141 -71 c29 -29 30 -81 2 -99 -46 -29 -115 73 -76
112 19 19 47 14 74 -13z"/>
<path d="M2842 3261 c-39 -19 -43 -24 -40 -52 4 -44 33 -61 56 -33 29 36 60
47 93 34 28 -12 46 -41 35 -59 -4 -5 -22 -15 -41 -21 -45 -15 -44 -28 3 -35
65 -11 96 -40 76 -72 -19 -31 -78 -39 -138 -19 -54 18 -76 16 -76 -8 0 -41
106 -86 203 -86 152 1 228 101 142 187 -32 32 -33 36 -20 56 19 31 -3 80 -47
103 -52 28 -191 30 -246 5z"/>
<path d="M3537 2483 l-37 -4 7 -42 c10 -68 19 -92 31 -91 7 1 35 2 62 3 62 1
67 21 5 21 -38 0 -45 3 -45 20 0 16 7 20 35 20 50 0 44 18 -7 22 -51 4 -53 21
-3 28 20 3 36 10 36 15 0 11 -28 14 -84 8z"/>
<path d="M3364 2473 c-20 -4 -21 -7 -10 -66 l11 -62 63 0 c35 0 62 4 62 10 0
6 -19 10 -42 10 -32 0 -43 4 -46 18 -3 14 4 17 33 17 24 0 35 4 33 12 -3 7
-20 12 -39 12 -49 1 -47 30 4 34 20 2 37 7 37 13 0 9 -64 10 -106 2z"/>
<path d="M3067 2463 l-38 -4 7 -47 c9 -64 22 -94 37 -89 6 2 12 16 12 30 -1
22 5 27 37 32 50 9 48 23 -4 27 -57 4 -64 28 -8 28 29 0 40 4 38 13 -5 13 -25
16 -81 10z"/>
<path d="M3174 2438 c4 -18 9 -50 13 -70 4 -29 10 -38 25 -38 15 0 19 6 16 28
-3 23 1 27 22 27 16 0 28 -8 35 -22 6 -14 18 -23 32 -23 28 0 28 7 4 39 -15
20 -17 28 -7 43 17 30 -16 48 -87 48 l-59 0 6 -32z m95 3 c19 -12 5 -31 -24
-31 -22 0 -40 22 -28 34 9 9 36 7 52 -3z"/>
<path d="M3403 2258 c-23 -11 -32 -48 -12 -48 7 0 8 -11 4 -29 -5 -23 -2 -32
14 -40 22 -12 61 -14 85 -5 21 8 20 44 -1 60 -11 8 -13 13 -5 14 26 0 12 38
-19 49 -37 13 -37 13 -66 -1z m62 -33 c0 -5 -10 -11 -22 -13 -16 -2 -23 2 -23
13 0 11 7 15 23 13 12 -2 22 -7 22 -13z m4 -48 c13 -16 5 -27 -20 -27 -24 0
-35 20 -18 31 19 12 25 11 38 -4z"/>
<path d="M3523 2233 c3 -38 3 -38 44 -35 44 2 63 -17 38 -38 -10 -8 -19 -8
-34 2 -15 9 -23 10 -32 1 -17 -17 51 -36 83 -24 56 21 35 81 -29 81 -23 0 -33
5 -33 15 0 10 11 15 35 15 19 0 35 5 35 10 0 6 -25 10 -55 10 l-55 0 3 -37z"/>
<path d="M3248 2253 c-32 -8 -19 -25 16 -22 19 2 38 1 41 -2 3 -4 -4 -27 -15
-53 -24 -58 -24 -56 0 -56 21 0 47 49 57 108 l6 32 -44 -1 c-24 -1 -52 -3 -61
-6z"/>
<path d="M3120 2205 c-35 -51 -31 -69 12 -63 19 3 32 0 35 -9 7 -17 43 -17 43
1 0 8 6 17 13 20 9 3 8 8 -4 15 -9 6 -20 27 -23 46 -10 50 -37 46 -76 -10z
m43 -19 c3 -8 0 -17 -8 -19 -17 -7 -25 1 -18 19 7 18 19 18 26 0z"/>
<path d="M3676 2062 c-3 -5 0 -36 7 -70 l12 -62 63 0 c46 0 63 3 60 12 -3 8
-20 11 -46 9 -37 -2 -42 0 -42 18 0 17 6 21 35 21 26 0 35 4 35 16 0 14 -7 15
-41 10 -35 -6 -40 -4 -37 11 2 10 10 18 18 19 8 1 25 2 38 2 12 1 22 7 22 12
0 12 -117 14 -124 2z"/>
<path d="M3522 2044 c-32 -22 -30 -76 4 -103 42 -33 134 -23 134 14 0 20 -39
19 -46 0 -9 -21 -51 -19 -64 4 -17 33 -12 69 11 76 12 4 26 2 32 -4 6 -6 22
-11 37 -11 l25 1 -24 19 c-28 24 -78 26 -109 4z"/>
<path d="M3341 1983 c-21 -72 -15 -100 15 -64 13 14 30 21 56 21 21 0 38 -4
38 -9 0 -11 29 -23 41 -16 5 3 -10 35 -34 70 -34 52 -47 65 -68 65 -25 0 -29
-6 -48 -67z m67 15 c18 -18 14 -38 -8 -38 -15 0 -20 7 -20 25 0 27 9 32 28 13z"/>
<path d="M3029 2021 c-34 -28 -16 -53 44 -65 47 -9 61 -28 31 -40 -9 -4 -28 1
-41 10 -14 8 -32 13 -41 9 -15 -6 -14 -9 7 -26 50 -41 161 -7 131 41 -4 7 -29
18 -56 25 -26 6 -50 17 -51 22 -6 16 26 24 47 13 23 -12 50 -13 50 -2 0 12
-46 32 -74 32 -13 0 -34 -9 -47 -19z"/>
<path d="M3184 2013 c3 -15 8 -47 11 -70 5 -34 11 -43 27 -43 15 0 19 6 16 28
-3 24 1 28 31 32 41 6 61 32 45 58 -8 12 -27 18 -73 20 l-63 3 6 -28z m93 -10
c6 -17 -38 -28 -48 -12 -5 8 -9 18 -9 22 0 13 53 4 57 -10z"/>
<path d="M4510 4111 c-63 -4 -121 -10 -127 -14 -15 -10 -17 -46 -3 -81 11 -31
24 -32 57 -6 20 16 41 20 94 20 80 0 83 -6 40 -66 -41 -57 -81 -135 -81 -161
0 -24 37 -40 100 -45 34 -3 35 -2 37 37 5 74 25 158 54 233 16 40 27 78 24 83
-6 9 -10 9 -195 0z"/>
<path d="M4170 4033 c-167 -147 -163 -141 -156 -187 4 -22 9 -43 12 -46 3 -3
49 -5 102 -5 l97 0 9 -38 c9 -33 13 -37 32 -33 58 15 74 26 74 50 0 16 7 27
20 31 11 3 20 12 20 18 0 31 -14 57 -30 57 -27 0 -38 20 -55 101 -23 115 -25
119 -38 119 -6 0 -46 -30 -87 -67z m30 -119 l0 -34 -50 0 c-61 0 -64 13 -13
57 44 36 63 30 63 -23z"/>
<path d="M3193 4055 c-72 -16 -83 -21 -83 -40 0 -14 21 -25 51 -25 25 0 45
-34 59 -102 14 -73 7 -96 -33 -106 -22 -6 -32 -14 -32 -28 0 -18 8 -19 160
-19 153 0 160 1 160 20 0 15 -11 24 -43 34 -50 16 -56 25 -73 141 -10 64 -10
86 -1 101 7 11 10 24 7 29 -9 14 -98 11 -172 -5z"/>
<path d="M2845 3959 c-66 -55 -122 -108 -123 -116 -2 -8 -1 -30 2 -49 l7 -33
102 -3 101 -3 9 -37 c10 -42 13 -43 68 -26 31 9 39 16 39 35 0 16 8 27 25 33
22 8 24 14 19 37 -9 38 -13 43 -39 53 -20 8 -26 22 -41 109 -13 78 -21 101
-33 101 -9 0 -70 -46 -136 -101z m69 -61 c16 -44 3 -58 -54 -58 -27 0 -50 3
-50 7 0 13 74 83 85 80 5 -2 14 -15 19 -29z"/>
<path d="M1555 4039 c-125 -18 -160 -49 -85 -74 41 -14 56 -38 65 -111 8 -64
-4 -90 -45 -99 -36 -8 -46 -21 -30 -40 16 -19 309 -22 328 -3 16 16 -13 48
-43 48 -41 0 -57 33 -68 135 -8 83 -7 98 7 114 12 13 13 20 4 29 -13 13 -45
14 -133 1z"/>
<path d="M1885 4039 c-42 -12 -75 -45 -75 -74 0 -13 11 -37 24 -52 l25 -28
-21 -22 c-49 -53 -8 -129 84 -154 57 -15 184 -7 225 15 83 42 77 124 -12 173
-19 11 -19 12 -2 30 34 39 17 83 -43 107 -44 17 -154 20 -205 5z m136 -49 c27
-15 24 -48 -4 -55 -33 -9 -77 11 -77 34 0 29 43 41 81 21z m-19 -150 c51 -14
71 -36 58 -61 -8 -14 -21 -19 -53 -19 -51 0 -87 23 -87 55 0 34 22 41 82 25z"/>
<path d="M601 4012 c-50 -19 -91 -66 -74 -83 8 -8 19 -6 41 5 40 21 106 21
127 0 25 -25 10 -52 -77 -141 -50 -50 -79 -87 -75 -96 8 -21 317 -12 335 11
14 19 16 88 2 97 -5 3 -30 -1 -55 -10 -49 -16 -105 -20 -105 -7 0 4 12 15 28
24 117 69 137 164 42 202 -52 20 -133 20 -189 -2z"/>
<path d="M254 4005 c-85 -15 -114 -29 -114 -55 0 -17 7 -20 40 -20 47 0 64
-23 54 -75 -6 -32 -2 -39 57 -102 35 -37 68 -71 73 -74 11 -8 128 1 139 11 16
14 -6 39 -41 47 -24 6 -41 18 -49 33 -15 30 -17 206 -3 215 6 3 10 13 10 21 0
18 -65 18 -166 -1z"/>
<path d="M0 3620 c0 -71 4 -110 13 -119 10 -11 10 -13 0 -7 -10 6 -13 -28 -13
-156 l1 -163 45 -50 c26 -27 92 -97 148 -155 55 -58 133 -139 171 -180 226
-242 546 -581 595 -630 24 -23 476 -499 595 -625 83 -88 186 -198 230 -244 44
-47 184 -193 310 -325 127 -132 280 -292 340 -355 61 -64 165 -172 231 -241
198 -204 213 -221 225 -257 6 -20 9 -53 6 -74 l-5 -39 228 0 c225 0 228 0 233
22 8 29 -17 158 -39 200 -30 59 -73 108 -404 453 -179 187 -366 383 -415 435
-49 52 -136 145 -195 205 -58 61 -139 146 -180 190 -40 44 -110 118 -155 165
-45 47 -216 227 -380 400 -165 173 -398 419 -519 545 -122 127 -264 275 -316
329 -52 55 -160 168 -240 250 -253 262 -365 379 -438 456 l-71 75 -1 -105z
m83 -193 c57 -61 62 -79 7 -22 -19 19 -30 35 -26 35 4 0 13 -6 19 -13z m127
-129 c3 -4 52 -56 110 -115 108 -112 229 -239 365 -384 44 -47 163 -172 265
-279 102 -106 239 -250 305 -319 66 -69 176 -184 245 -256 69 -71 162 -168
206 -215 44 -47 117 -123 161 -170 45 -47 94 -99 110 -115 15 -17 63 -68 106
-114 42 -45 77 -87 77 -93 0 -6 -14 4 -32 23 -66 71 -218 231 -407 429 -249
260 -371 387 -396 415 -63 68 -183 195 -280 295 -60 64 -139 147 -174 185 -71
77 -145 155 -426 450 -104 109 -197 206 -205 215 -8 9 -35 39 -60 66 -36 39
-38 43 -10 19 19 -17 37 -33 40 -37z m2040 -2152 c0 -6 -16 6 -35 27 -45 49
-45 61 0 17 19 -19 35 -39 35 -44z m47 -41 c15 -13 25 -27 22 -30 -3 -2 -18 9
-34 25 -35 36 -25 40 12 5z m33 -115 c0 -5 -5 -10 -11 -10 -5 0 -7 5 -4 10 3
6 8 10 11 10 2 0 4 -4 4 -10z"/>
<path d="M4687 3237 c-112 -105 -119 -114 -112 -142 17 -73 7 -68 118 -64
l101 4 11 -37 c5 -20 13 -39 16 -42 3 -3 27 1 52 10 42 14 47 19 47 45 0 19 5
29 14 29 22 0 29 17 22 56 -6 28 -11 34 -31 34 -29 0 -37 15 -55 95 -7 33 -16
74 -19 90 -13 55 -38 43 -164 -78z m79 -61 c3 -19 3 -39 -1 -45 -7 -12 -105
-15 -105 -4 0 13 74 83 87 83 6 0 15 -15 19 -34z"/>
<path d="M4274 3323 l-81 -4 -5 -82 c-3 -45 -4 -85 -1 -89 2 -5 38 -8 79 -8
66 0 78 -3 99 -25 32 -31 32 -50 0 -71 -33 -22 -80 -12 -118 24 l-29 27 -19
-24 c-47 -58 -9 -95 105 -99 142 -6 226 35 226 111 0 75 -79 126 -193 127 -60
0 -68 2 -65 18 3 14 17 18 77 22 72 5 75 6 82 34 11 39 4 46 -39 44 -20 -1
-74 -4 -118 -5z"/>
<path d="M1612 3249 c-66 -13 -134 -71 -117 -99 9 -14 27 -12 64 6 36 18 99
13 113 -8 20 -33 6 -60 -78 -148 -47 -50 -84 -96 -81 -103 5 -15 149 -21 267
-10 l85 8 3 54 c2 30 -1 58 -5 62 -5 5 -32 1 -60 -7 -29 -8 -65 -14 -80 -12
-27 3 -26 4 24 40 61 44 86 78 86 119 0 72 -109 121 -221 98z"/>
<path d="M2045 3236 c-172 -80 -167 -280 8 -336 84 -27 206 -8 260 40 28 24
32 35 32 77 0 53 -21 90 -67 117 -38 23 -109 31 -152 16 -73 -24 -54 16 27 56
40 21 46 28 37 40 -18 21 -88 16 -145 -10z m129 -175 c9 -10 19 -34 23 -54 4
-29 2 -37 -16 -46 -23 -13 -56 -1 -78 28 -13 17 -17 73 -6 84 13 14 60 6 77
-12z"/>
<path d="M0 2803 l0 -60 66 -66 c71 -71 80 -100 32 -105 -15 -2 -40 4 -57 12
-16 9 -32 16 -36 16 -3 0 -5 -29 -5 -65 l0 -65 43 0 c54 0 155 48 191 91 37
44 42 89 16 144 -36 75 -122 137 -208 151 l-42 7 0 -60z"/>
<path d="M4862 2479 c-128 -25 -178 -123 -105 -209 49 -58 130 -81 201 -57 51
18 60 8 26 -27 -32 -32 -95 -50 -145 -42 -25 4 -40 1 -48 -8 -19 -22 15 -40
85 -44 71 -5 137 9 202 40 l42 22 0 132 0 133 -27 19 c-33 23 -126 52 -162 51
-14 -1 -46 -5 -69 -10z m71 -70 c51 -26 74 -92 42 -119 -22 -18 -60 1 -85 42
-25 41 -25 64 -2 77 22 13 19 13 45 0z"/>
<path d="M4548 2433 c-23 -21 -82 -76 -130 -122 -79 -75 -88 -88 -88 -120 0
-20 6 -47 13 -61 11 -23 18 -25 67 -22 30 1 75 5 100 8 l46 5 12 -45 c14 -52
21 -54 86 -26 43 18 45 21 36 44 -8 23 -6 27 16 32 24 6 26 10 20 48 -7 42
-20 58 -42 49 -8 -3 -18 5 -23 19 -13 32 -41 158 -41 184 0 12 -6 27 -14 33
-12 10 -23 5 -58 -26z m-24 -154 c13 -66 11 -69 -49 -69 -30 0 -55 2 -55 5 0
7 83 91 91 93 4 1 9 -12 13 -29z"/>
<path d="M620 2420 c-8 -5 -151 -75 -317 -157 -229 -112 -302 -152 -303 -166
0 -26 5 -24 298 123 142 70 283 140 315 155 47 22 56 29 46 41 -13 16 -18 16
-39 4z"/>
<path d="M2225 2363 c-195 -4 -187 0 -183 -75 2 -46 7 -64 21 -72 14 -9 21 -7
31 6 7 10 25 22 40 28 28 10 156 14 156 5 0 -3 -24 -40 -54 -83 -74 -106 -103
-168 -90 -190 13 -19 114 -48 138 -39 10 4 16 18 16 39 0 57 29 158 76 265 24
57 42 108 39 113 -3 6 -16 9 -28 8 -12 -1 -85 -4 -162 -5z"/>
<path d="M1732 2346 c-29 -8 -56 -16 -59 -20 -4 -3 8 -21 26 -40 22 -23 42
-33 64 -34 36 -1 60 -27 51 -55 -4 -14 5 -30 32 -58 l38 -39 34 33 c64 61 76
109 42 164 -14 24 -32 36 -71 47 -62 19 -85 19 -157 2z"/>
<path d="M660 2091 c-39 -12 -103 -47 -127 -70 -43 -41 -39 -84 11 -110 33
-18 55 -9 49 22 -4 18 2 30 22 46 33 25 53 26 83 5 26 -18 28 -41 6 -65 -21
-23 -11 -54 14 -43 9 4 35 9 57 12 31 3 45 -1 59 -16 42 -47 -5 -99 -97 -109
-32 -3 -60 -9 -62 -14 -3 -4 7 -17 22 -29 25 -19 37 -22 103 -18 123 7 223 74
223 148 0 53 -61 116 -124 129 -26 5 -35 12 -37 31 -10 69 -110 109 -202 81z"/>
<path d="M1950 2088 c-19 -5 -36 -11 -38 -12 -3 -3 99 -106 104 -106 2 0 4 29
4 65 0 72 -1 73 -70 53z"/>
<path d="M253 1891 c-47 -29 -87 -104 -86 -161 2 -164 206 -273 368 -196 119
56 151 151 78 229 -75 80 -214 89 -277 18 -44 -49 -61 -10 -25 60 33 66 7 89
-58 50z m190 -175 c18 -7 45 -28 60 -45 22 -26 25 -36 17 -52 -13 -23 -59 -25
-99 -5 -56 29 -77 98 -33 109 9 3 18 5 20 6 1 0 17 -5 35 -13z"/>
<path d="M1230 1536 c-91 -46 -308 -158 -484 -250 -175 -91 -324 -166 -331
-166 -7 0 -73 66 -146 148 -73 81 -157 172 -187 203 -29 31 -59 65 -67 75 -14
18 -14 18 -14 -6 -1 -27 0 -29 221 -268 82 -89 148 -167 146 -173 -4 -11 -49
-36 -260 -146 -60 -31 -108 -62 -108 -70 0 -9 67 21 194 86 107 56 198 101
203 101 7 0 146 -146 328 -344 6 -6 84 -92 175 -191 90 -99 186 -203 212 -232
26 -28 48 -57 48 -62 0 -6 -17 -21 -37 -34 -56 -36 -261 -157 -292 -173 -14
-8 -21 -14 -14 -14 6 0 89 43 182 95 94 52 177 95 184 95 6 1 53 -43 104 -97
50 -54 94 -96 97 -93 3 3 -15 28 -40 55 -86 94 -116 134 -112 152 2 12 45 39
123 78 67 33 202 102 300 154 99 51 250 130 335 174 200 103 224 117 212 129
-5 5 -30 -2 -63 -20 -30 -16 -112 -60 -184 -97 -168 -88 -273 -143 -310 -165
-47 -27 -442 -230 -448 -230 -8 0 5 -14 -392 424 -198 218 -360 404 -360 412
0 15 80 58 713 377 237 119 276 144 246 154 -5 2 -83 -35 -174 -81z"/>
<path d="M5013 1531 c-77 -35 -89 -106 -26 -158 l26 -21 -22 -27 c-26 -34 -27
-61 -2 -101 20 -32 74 -64 110 -64 17 0 21 6 21 35 0 22 -8 43 -20 55 -11 11
-20 25 -20 30 0 6 9 19 20 30 25 25 28 101 5 120 -8 7 -15 19 -15 27 0 7 7 16
15 19 9 4 15 19 15 40 0 32 -2 34 -32 34 -18 0 -52 -9 -75 -19z"/>
<path d="M4730 1523 c-30 -1 -79 -5 -108 -9 l-53 -6 3 -96 3 -96 70 -1 c82 -2
122 -16 134 -47 12 -33 3 -55 -30 -68 -36 -16 -77 -6 -111 27 -32 30 -52 26
-66 -15 -26 -75 79 -111 233 -80 130 26 176 138 89 213 -36 31 -89 45 -168 45
-58 0 -66 2 -66 19 0 16 11 19 81 25 83 8 86 10 91 61 3 34 0 34 -102 28z"/>
<path d="M3715 1461 l-100 -6 -3 -96 -3 -97 73 -4 c95 -5 132 -23 136 -65 2
-23 -3 -35 -20 -47 -35 -25 -73 -20 -113 15 -39 35 -59 33 -77 -6 -26 -57 31
-95 144 -95 162 0 262 88 211 187 -28 54 -80 77 -180 82 -72 3 -83 6 -83 21 0
22 27 30 101 30 64 0 79 11 79 57 0 31 -2 33 -32 31 -18 -1 -78 -4 -133 -7z"/>
<path d="M3195 1425 c-61 -22 -83 -65 -49 -99 21 -22 28 -20 64 15 27 27 36
31 67 26 62 -11 71 -61 16 -87 -44 -20 -41 -36 8 -43 112 -15 97 -117 -16
-117 -19 0 -53 7 -75 16 -77 31 -80 -34 -3 -71 48 -23 186 -32 237 -15 53 17
94 56 102 95 7 42 -20 103 -53 118 -13 6 -22 13 -20 16 30 58 31 63 16 89 -24
45 -92 72 -179 72 -41 -1 -93 -7 -115 -15z"/>
<path d="M1407 1259 c-85 -20 -167 -80 -167 -124 0 -27 35 -65 60 -65 15 0 20
7 20 28 0 49 57 82 104 61 33 -16 44 -53 22 -78 -27 -30 -20 -45 17 -36 79 19
130 -5 125 -59 -4 -40 -43 -66 -111 -73 -68 -7 -76 -26 -20 -50 109 -45 303
46 303 143 0 46 -68 117 -126 130 -32 8 -39 15 -45 40 -8 41 -15 52 -47 68
-39 19 -91 25 -135 15z"/>
<path d="M1119 1113 c-24 -14 -88 -47 -141 -74 -53 -27 -100 -53 -103 -59 -7
-12 58 -105 80 -113 9 -4 20 7 32 30 18 37 105 93 144 93 20 0 25 -18 34 -145
10 -149 30 -182 103 -170 67 11 82 15 82 24 0 5 -18 39 -39 76 -36 60 -99 237
-116 322 -8 42 -24 46 -76 16z"/>
<path d="M248 655 c-82 -30 -148 -94 -148 -143 0 -29 60 -92 87 -92 29 0 43
-20 43 -60 0 -46 21 -75 73 -101 53 -27 119 -21 202 20 79 39 115 78 122 130
5 36 2 44 -29 75 -20 20 -52 39 -78 46 -62 16 -75 25 -73 46 7 75 -98 116
-199 79z m86 -74 c26 -29 12 -58 -33 -72 -48 -14 -81 0 -81 36 0 48 80 74 114
36z m156 -171 c25 -25 25 -33 -3 -65 -57 -67 -203 -24 -165 48 21 40 133 52
168 17z"/>
<path d="M4915 583 c-122 -5 -115 2 -115 -113 l0 -100 58 0 c109 0 162 -30
162 -91 0 -31 -16 -47 -57 -55 -34 -7 -65 6 -104 43 l-27 25 -16 -23 c-37 -53
-10 -93 73 -109 57 -11 157 -1 204 21 27 12 27 13 27 115 l0 102 -43 21 c-30
15 -63 21 -109 21 -48 0 -69 4 -79 16 -21 25 14 44 82 44 80 0 89 5 89 51 0
39 0 39 -37 37 -21 -1 -69 -3 -108 -5z"/>
<path d="M3868 510 c-48 -14 -95 -49 -108 -79 -17 -41 -5 -57 27 -35 67 43
141 36 162 -15 16 -37 6 -59 -72 -162 l-65 -87 22 -21 c21 -20 26 -21 162 -10
76 5 145 12 152 14 17 6 16 114 -1 121 -7 2 -30 -2 -50 -11 -48 -20 -117 -20
-117 -1 0 8 10 22 21 30 12 8 39 36 60 62 48 57 53 106 15 151 -39 46 -134 65
-208 43z"/>
<path d="M3470 483 c0 -5 36 -44 81 -88 76 -76 81 -79 95 -61 34 47 -1 114
-69 135 -51 15 -107 23 -107 14z"/>
<path d="M2161 440 c-25 -16 -66 -39 -93 -51 -26 -12 -48 -27 -48 -33 0 -15
108 -176 118 -176 5 0 28 10 53 21 71 35 119 36 157 4 76 -64 11 -140 -95
-113 -24 6 -46 8 -50 5 -11 -12 19 -66 41 -73 42 -14 99 -4 158 28 109 58 137
141 71 211 -58 62 -155 75 -253 33 -61 -27 -80 -24 -80 10 0 19 12 30 60 54
33 17 60 34 60 38 0 12 -39 72 -47 71 -5 0 -28 -13 -52 -29z"/>
<path d="M18 333 c-14 -3 -18 -15 -18 -47 0 -38 3 -43 32 -51 17 -6 41 -23 52
-38 19 -26 19 -30 6 -55 -9 -15 -32 -35 -53 -45 -30 -15 -37 -24 -37 -48 0
-35 10 -36 76 -5 62 29 130 92 139 129 24 93 -93 187 -197 160z"/>
<path d="M1855 276 c-33 -18 -94 -51 -135 -74 -41 -22 -76 -44 -78 -50 -3 -10
74 -112 86 -112 4 0 14 18 23 39 14 32 28 45 78 70 71 36 65 35 85 15 10 -10
16 -34 16 -67 0 -90 5 -97 62 -97 41 0 49 3 44 15 -3 9 -22 68 -41 133 -46
147 -52 162 -67 162 -7 0 -40 -15 -73 -34z"/>
</g>
</svg>
